<svg id="Capa_1" data-name="Capa 1" xmlns="http://www.w3.org/2000/svg" viewBox="0 0 1920 1080">
  <defs>
    <style>
      .cls-1 {
        fill: #ffea2c;
      }
    </style>
  </defs>
  <rect class="cls-1" x="-50.49" y="651.49" width="3326" height="96" transform="translate(-143.7 627.4) rotate(-21.1)"/>
  <g>
    <path d="M622.13,1087.9c.79,5.11-.6,16.64-17.37,23.12-13.64,5.26-25.68,1.76-30.84-11.6-4.36-11.31-.17-23.18,15.68-29.3,12.12-4.68,21.92-1.68,26.51,3.45l-9.94,5.32a13.64,13.64,0,0,0-13.86-1.74c-10.17,3.93-10.63,12.87-8.44,18.56,2.84,7.35,10.71,11.16,19,8,7.79-3,9-8.59,9.26-11.91Z"/>
    <path d="M637.92,1051.47c11.8-4.55,25.53-4.25,31.33,10.79,4.86,12.61-.23,23.9-15.33,29.73s-26.69.91-31.38-11.27C616.84,1066,626.12,1056,637.92,1051.47Zm13.25,33.68c12.55-4.84,9.53-16,8.51-18.7-2.63-6.82-9.69-11.74-18.89-8.19-9.47,3.66-10.85,12.33-8.3,18.93C634.87,1083.36,641.32,1089,651.17,1085.15Z"/>
    <path d="M716.27,1066.5l-33.93-17.68,10.34,26.78-9.1,3.51-14.74-38.2,9.58-3.7,33.73,17.64-10.3-26.68,9.09-3.51,14.74,38.21Z"/>
    <path d="M735.53,1045.52c4.13,3.94,10.52,2.78,15.22,1,1.84-.71,9.44-3.89,7.58-8.71-1.21-3.14-5.09-2.26-10.07-1.14-7.51,1.65-11.45,2.55-15.1,2.28a10.56,10.56,0,0,1-9.51-6.78c-3.28-8.49,3.77-15.19,13.24-18.84,11.2-4.33,18.43-2.83,23.55,1.42l-8.16,5.75c-3.56-3.1-9.13-1.75-13-.25-1.79.69-8.29,3.32-6.62,7.65.75,2,2.42,2.24,4.3,2.13,3-.23,10.24-1.83,13.18-2.41,5.31-1.06,13.8-2.59,17.08,5.91,4,10.49-4.79,16.58-14.48,20.32-11.15,4.3-18.59,2.88-25-2.71Z"/>
    <path d="M784.41,1004.34l12.05,31.22-9.63,3.71-12.05-31.22-14.17,5.47-2.7-7,37.93-14.63,2.7,7Z"/>
    <path d="M845.21,1016.74l-16.1-11.44-10.93,4.22,5.93,15.37-9.52,3.67-14.74-38.2,26.3-10.15a20.73,20.73,0,0,1,6.6-1.74c5.49-.43,9.82,2.74,11.76,7.77a12.62,12.62,0,0,1,.91,5.43c-.22,4.57-3.06,7-6.69,9.24l17.79,11.47Zm-29.64-14,15.75-6.08c1.78-.69,5.13-2.48,3.55-6.59s-4.89-3.65-7.54-2.62L812,993.39Z"/>
    <path d="M856.61,968.46l9,23.27c2.5,6.49,8.52,6.47,14.42,4.19,4.82-1.86,10.38-5.81,8.08-11.76l-9.35-24.24,9.52-3.68,9.38,24.3c4,10.44-2.95,18.61-14.53,23.08-11.85,4.57-22.66,3.14-26.69-7.3l-9.33-24.19Z"/>
    <path d="M950.59,961.16c.79,5.11-.6,16.65-17.38,23.12-13.63,5.26-25.67,1.77-30.83-11.6-4.37-11.31-.18-23.18,15.67-29.3,12.12-4.67,21.92-1.68,26.51,3.45l-9.94,5.33a13.58,13.58,0,0,0-13.85-1.74c-10.18,3.92-10.64,12.87-8.45,18.55,2.84,7.36,10.71,11.16,19,8,7.79-3,9.06-8.6,9.27-11.91Z"/>
    <path d="M966.17,934.2l12.05,31.22-9.63,3.72-12.05-31.22-14.18,5.47-2.69-7,37.93-14.64,2.69,7Z"/>
    <path d="M996.35,958.43l-14.74-38.2,9.57-3.7,14.74,38.2Z"/>
    <path d="M1020.59,903.82c11.8-4.55,25.53-4.26,31.33,10.78,4.87,12.61-.22,23.9-15.32,29.73s-26.69.91-31.39-11.27C999.51,918.29,1008.8,908.37,1020.59,903.82Zm13.25,33.68c12.55-4.85,9.53-16,8.51-18.7-2.63-6.82-9.69-11.75-18.89-8.2-9.47,3.66-10.84,12.33-8.3,18.94,2.38,6.16,8.84,11.76,18.68,8Z"/>
    <path d="M1098.94,918.84,1065,901.16,1075.35,928l-9.09,3.5-14.74-38.2,9.57-3.69,33.73,17.63-10.3-26.67,9.09-3.51,14.75,38.2Z"/>
  </g>
  <g>
    <path d="M1188.6,840.36l9,23.27c2.5,6.49,8.53,6.47,14.42,4.19,4.82-1.86,10.38-5.81,8.09-11.76l-9.36-24.24,9.53-3.67,9.37,24.29c4,10.44-3,18.61-14.53,23.08-11.85,4.57-22.66,3.15-26.69-7.3L1179.08,844Z"/>
    <path d="M1277.42,850l-33.93-17.68,10.34,26.78-9.09,3.51L1230,824.39l9.57-3.7,33.73,17.64L1263,811.65l9.09-3.51,14.74,38.21Z"/>
    <path d="M1281.94,804.34l20.94-8.08c6.17-2.38,12-3.51,18.13-.71,4.76,2.2,8.16,6.8,10,11.61,3,7.85,1.38,13.4-.11,16.46-2.58,5.41-6.74,8.32-13.56,11l-20.67,8Zm32.86,23.44c6.71-2.58,10.54-7,6.55-17.32-.46-1.19-2.64-6.69-7.23-8.27-2.95-1-5.7-.29-9,1l-11,4.26,9.52,24.68Z"/>
    <path d="M1345.22,823.82l-14.74-38.21,35.6-13.73,2.66,6.87-26,10,3.32,8.6,25.16-9.7,2.63,6.81-25.16,9.71,3.51,9.09,27.11-10.46,2.63,6.82Z"/>
    <path d="M1420,795l-16.11-11.44L1393,787.78l5.93,15.37-9.52,3.67-14.74-38.2,26.3-10.15a20.73,20.73,0,0,1,6.6-1.74c5.49-.44,9.82,2.74,11.76,7.77a12.75,12.75,0,0,1,.92,5.43c-.23,4.56-3.07,7-6.7,9.24l17.8,11.47Zm-29.65-14,15.75-6.07c1.79-.69,5.14-2.48,3.55-6.59s-4.89-3.65-7.54-2.63l-15.37,5.93Z"/>
    <path d="M1492.58,752c.79,5.11-.6,16.65-17.37,23.12-13.64,5.26-25.68,1.77-30.84-11.6-4.36-11.31-.17-23.18,15.68-29.3,12.12-4.67,21.92-1.68,26.51,3.45l-9.94,5.33a13.59,13.59,0,0,0-13.86-1.74c-10.17,3.92-10.63,12.87-8.44,18.55,2.84,7.36,10.71,11.16,19,8,7.79-3,9-8.59,9.27-11.9Z"/>
    <path d="M1508.37,715.61c11.8-4.55,25.53-4.26,31.33,10.79,4.86,12.6-.23,23.89-15.32,29.72s-26.7.91-31.39-11.26C1487.29,730.08,1496.57,720.16,1508.37,715.61Zm13.25,33.68c12.55-4.85,9.53-16,8.51-18.7-2.63-6.82-9.69-11.74-18.89-8.19-9.47,3.65-10.85,12.32-8.3,18.93C1505.32,747.49,1511.77,753.09,1521.62,749.29Z"/>
    <path d="M1586.72,730.63,1552.79,713l10.34,26.79-9.09,3.5L1539.29,705l9.58-3.69L1582.6,719l-10.3-26.67,9.09-3.51,14.74,38.2Z"/>
    <path d="M1606,709.65c4.13,3.94,10.52,2.78,15.22,1,1.84-.71,9.44-3.89,7.59-8.7-1.21-3.14-5.1-2.26-10.08-1.15-7.51,1.65-11.45,2.55-15.1,2.28a10.54,10.54,0,0,1-9.51-6.77c-3.28-8.5,3.77-15.2,13.24-18.85,11.2-4.32,18.43-2.82,23.55,1.42l-8.16,5.76c-3.56-3.1-9.13-1.76-13-.26-1.79.69-8.29,3.33-6.62,7.65.75,2,2.42,2.24,4.3,2.13,3-.23,10.24-1.83,13.18-2.41,5.32-1,13.8-2.59,17.08,5.91,4,10.5-4.79,16.58-14.48,20.32-11.15,4.3-18.59,2.88-25-2.71Z"/>
    <path d="M1654.86,668.47l12.05,31.22-9.63,3.72-12-31.22-14.17,5.47-2.7-7L1666.29,656l2.7,7Z"/>
    <path d="M1715.67,680.88l-16.11-11.44-10.93,4.21,5.93,15.37L1685,692.7l-14.74-38.21,26.3-10.14a20.73,20.73,0,0,1,6.6-1.74c5.49-.44,9.82,2.73,11.76,7.77a12.75,12.75,0,0,1,.92,5.43c-.23,4.56-3.07,7-6.7,9.23L1727,676.51Zm-29.65-14,15.75-6.08c1.78-.69,5.13-2.48,3.55-6.59s-4.89-3.64-7.54-2.62l-15.37,5.93Z"/>
    <path d="M1727.06,632.59l9,23.27c2.5,6.49,8.52,6.47,14.42,4.19,4.82-1.85,10.38-5.8,8.08-11.76l-9.35-24.24,9.52-3.67,9.38,24.29c4,10.45-2.95,18.61-14.53,23.08-11.85,4.57-22.66,3.15-26.69-7.3l-9.33-24.18Z"/>
    <path d="M1821,625.3c.79,5.1-.6,16.64-17.38,23.12-13.63,5.26-25.67,1.76-30.83-11.61-4.37-11.31-.18-23.18,15.67-29.29,12.12-4.68,21.92-1.69,26.51,3.44l-9.94,5.33a13.58,13.58,0,0,0-13.85-1.74c-10.18,3.92-10.64,12.87-8.45,18.55,2.84,7.36,10.71,11.16,19,8,7.79-3,9.06-8.59,9.27-11.91Z"/>
    <path d="M1836.62,598.34l12.05,31.22-9.63,3.71-12-31.22-14.18,5.47-2.69-7,37.93-14.63,2.7,7Z"/>
    <path d="M1866.8,622.56l-14.74-38.2,9.57-3.69,14.75,38.2Z"/>
    <path d="M1891,568c11.8-4.55,25.53-4.25,31.33,10.79,4.87,12.6-.22,23.9-15.32,29.72s-26.69.91-31.39-11.26C1870,582.43,1879.25,572.5,1891,568Zm13.25,33.68c12.55-4.84,9.53-16,8.51-18.7-2.63-6.82-9.69-11.74-18.89-8.19-9.47,3.65-10.84,12.33-8.3,18.93,2.43,6.12,8.87,11.71,18.72,7.91Z"/>
  </g>
  <rect class="cls-1" x="-541.84" y="443.89" width="3311.67" height="95.59" transform="translate(-86.22 697.17) rotate(-33.53)"/>
  <g>
    <path d="M236.19,1082.72c1.88,4.81,3,16.38-11.95,26.33-12.17,8.09-24.68,7.29-32.61-4.64-6.71-10.09-5.2-22.59,9-32,10.82-7.19,21-6.39,26.62-2.38l-8.55,7.36a13.6,13.6,0,0,0-13.9,1.3c-9.08,6-7.59,14.87-4.22,19.94,4.37,6.57,12.87,8.58,20.26,3.66,7-4.62,7-10.35,6.47-13.63Z"/>
    <path d="M243.71,1043.74c10.53-7,24-9.69,32.92,3.73,7.48,11.26,5,23.38-8.52,32.34s-25.85,6.68-33.08-4.19C226.26,1062.44,233.18,1050.74,243.71,1043.74Zm20.23,30c11.2-7.45,5.83-17.73,4.25-20.1-4-6.08-12-9.36-20.21-3.9-8.45,5.62-7.92,14.39-4,20.28C247.64,1075.53,255.15,1079.59,263.94,1073.74Z"/>
    <path d="M323.45,1041.42l-36.95-9.91,15.89,23.91-8.11,5.4-22.67-34.1,8.54-5.69,36.75,9.91-15.83-23.81,8.11-5.4,22.67,34.1Z"/>
    <path d="M337.7,1016.76c4.89,3,10.87.43,15.07-2.36,1.65-1.09,8.38-5.85,5.52-10.14-1.86-2.8-5.47-1.1-10.09,1.06-7,3.24-10.62,5-14.24,5.5a10.55,10.55,0,0,1-10.76-4.55c-5-7.58.39-15.65,8.84-21.27,10-6.65,17.39-6.75,23.3-3.72l-6.72,7.39c-4.14-2.25-9.29.26-12.77,2.58-1.59,1.06-7.37,5-4.81,8.9,1.16,1.74,2.85,1.66,4.67,1.15,2.89-.88,9.59-4,12.34-5.21,5-2.18,12.91-5.52,17.95,2.06,6.23,9.37-1.08,17.23-9.73,23-9.95,6.61-17.52,6.84-25,2.78Z"/>
    <path d="M376.5,966,395,993.83l-8.6,5.71-18.5-27.86-12.65,8.41-4.15-6.23L385,951.35l4.14,6.23Z"/>
    <path d="M438.54,964.89l-18.2-7.68-9.75,6.49,9.12,13.72-8.5,5.65L388.53,949,412,933.37a20.71,20.71,0,0,1,6.07-3.13c5.26-1.62,10.18.54,13.16,5a12.8,12.8,0,0,1,2.07,5.1c.77,4.51-1.47,7.53-4.53,10.47l19.86,7.34Zm-32-7.23,14.06-9.34c1.59-1.06,4.47-3.53,2-7.2s-5.56-2.5-7.93-.93L401,949.31Z"/>
    <path d="M439.2,915.29,453,936.05c3.85,5.8,9.72,4.47,15,1,4.3-2.86,8.87-7.92,5.34-13.23L459,902.15l8.5-5.65,14.42,21.69c6.2,9.32,1.15,18.8-9.18,25.67-10.58,7-21.44,8-27.64-1.33l-14.4-21.59Z"/>
    <path d="M529.36,887.79c1.88,4.81,3,16.38-12,26.34-12.17,8.09-24.68,7.29-32.62-4.64-6.71-10.1-5.2-22.6,9-32,10.81-7.2,21-6.4,26.62-2.38l-8.55,7.35a13.6,13.6,0,0,0-13.9,1.3c-9.08,6-7.59,14.87-4.22,20,4.36,6.57,12.87,8.57,20.26,3.66,7-4.63,7-10.35,6.47-13.64Z"/>
    <path d="M538.73,858.09,557.26,886l-8.6,5.72-18.53-27.87-12.65,8.41L513.34,866l33.85-22.51,4.15,6.23Z"/>
    <path d="M573.44,875.2l-22.67-34.1,8.55-5.68L582,869.52Z"/>
    <path d="M585.27,816.63c10.53-7,24-9.68,32.92,3.74,7.49,11.25,5,23.38-8.51,32.34s-25.86,6.68-33.09-4.19C567.82,835.33,574.74,823.63,585.27,816.63Zm20.23,30c11.21-7.45,5.83-17.73,4.26-20.1-4-6.09-12-9.36-20.22-3.9-8.45,5.62-7.92,14.38-4,20.28,3.66,5.51,11.17,9.58,20,3.73Z"/>
    <path d="M665,814.32l-37-9.91,16,23.91-8.11,5.39-22.67-34.1,8.55-5.68,36.74,9.91L642.63,780l8.11-5.4,22.67,34.1Z"/>
  </g>
  <g>
    <path d="M735.53,718.26,749.34,739c3.85,5.8,9.72,4.47,15,1,4.3-2.86,8.87-7.92,5.34-13.23l-14.39-21.64,8.5-5.65,14.42,21.68c6.2,9.32,1.15,18.81-9.18,25.68-10.58,7-21.44,8-27.64-1.34L727,723.91Z"/>
    <path d="M824.32,708.4l-37-9.91,15.89,23.91-8.11,5.39L772.48,693.7,781,688l36.75,9.91L801.92,674.1l8.11-5.4,22.67,34.1Z"/>
    <path d="M818.84,662.87l18.69-12.43c5.51-3.66,11-6,17.54-4.63,5.13,1.12,9.44,4.87,12.3,9.17,4.65,7,4.24,12.78,3.45,16.09-1.34,5.84-4.77,9.58-10.86,13.63L841.51,697ZM856,678.63c6-4,8.78-9.11,2.64-18.34-.7-1.06-4-5.95-8.85-6.5-3.11-.38-5.63,1-8.58,2.91l-9.85,6.55,14.64,22Z"/>
    <path d="M884.84,668.16l-22.68-34.1,31.78-21.13,4.08,6.14-23.23,15.44,5.11,7.68,22.46-14.93,4,6.08L883.9,648.28l5.4,8.11,24.2-16.09,4,6.09Z"/>
    <path d="M951.54,623.81l-18.21-7.68-9.75,6.49,9.12,13.72L924.2,642l-22.67-34.1L925,592.28a21.08,21.08,0,0,1,6.07-3.13c5.26-1.61,10.18.55,13.17,5a12.78,12.78,0,0,1,2.06,5.1c.77,4.51-1.47,7.53-4.53,10.47l19.86,7.34Zm-32-7.23,14.06-9.34c1.59-1.06,4.48-3.53,2-7.21s-5.56-2.49-7.92-.92L914,608.23Z"/>
    <path d="M1013.13,566.14c1.88,4.81,3,16.38-12,26.33-12.17,8.1-24.68,7.29-32.61-4.64-6.71-10.09-5.2-22.59,9-32,10.82-7.19,21-6.39,26.62-2.38l-8.55,7.36a13.6,13.6,0,0,0-13.9,1.3c-9.08,6-7.59,14.87-4.22,19.94,4.37,6.57,12.87,8.58,20.26,3.66,7-4.62,7-10.35,6.47-13.63Z"/>
    <path d="M1020.65,527.16c10.53-7,24-9.69,32.92,3.74,7.48,11.25,5,23.38-8.52,32.33s-25.85,6.68-33-4.23C1003.2,545.86,1010.12,534.16,1020.65,527.16Zm20.23,30c11.2-7.46,5.83-17.74,4.25-20.11-4-6.08-12-9.36-20.21-3.9-8.45,5.62-7.92,14.39-4,20.28,3.66,5.57,11.17,9.57,20,3.74Z"/>
    <path d="M1100.39,524.84l-37-9.9,15.89,23.9-8.11,5.4-22.67-34.1,8.54-5.69,36.75,9.91L1078,490.55l8.11-5.4,22.67,34.1Z"/>
    <path d="M1114.64,500.18c4.89,2.95,10.87.43,15.07-2.36,1.65-1.09,8.38-5.85,5.52-10.14-1.86-2.8-5.47-1.1-10.09,1.06-7,3.24-10.62,5-14.24,5.5a10.55,10.55,0,0,1-10.76-4.55c-5-7.58.39-15.65,8.84-21.27,10-6.65,17.39-6.75,23.3-3.72l-6.72,7.39c-4.14-2.25-9.29.27-12.77,2.58-1.59,1.06-7.37,5-4.81,8.9,1.16,1.74,2.85,1.66,4.67,1.15,2.89-.88,9.59-4,12.34-5.21,5-2.18,12.91-5.52,18,2.06,6.23,9.37-1.08,17.23-9.73,23-10,6.61-17.52,6.85-25,2.78Z"/>
    <path d="M1153.44,449.38,1172,477.25l-8.6,5.71-18.53-27.86-12.65,8.41-4.15-6.23,33.86-22.51L1166,441Z"/>
    <path d="M1215.48,448.31l-18.2-7.67-9.75,6.48,9.12,13.72-8.5,5.65-22.68-34.1,23.48-15.6a20.71,20.71,0,0,1,6.07-3.13c5.26-1.62,10.18.54,13.16,5a12.8,12.8,0,0,1,2.07,5.1c.77,4.51-1.47,7.53-4.53,10.47l19.86,7.34Zm-32-7.23,14.06-9.34c1.59-1.06,4.47-3.53,2-7.2s-5.56-2.5-7.93-.93L1178,432.73Z"/>
    <path d="M1216.14,398.71,1230,419.47c3.85,5.8,9.72,4.47,15,1,4.3-2.86,8.87-7.92,5.34-13.23L1236,385.6l8.5-5.65,14.42,21.69c6.2,9.32,1.15,18.8-9.18,25.67-10.58,7-21.44,8-27.64-1.33l-14.35-21.59Z"/>
    <path d="M1306.3,371.21c1.88,4.82,3,16.38-12,26.34-12.17,8.09-24.68,7.29-32.62-4.64-6.71-10.1-5.2-22.59,9-32,10.81-7.2,21-6.4,26.62-2.38l-8.55,7.35a13.58,13.58,0,0,0-13.9,1.31c-9.08,6-7.59,14.87-4.22,19.94,4.36,6.57,12.87,8.57,20.26,3.66,7-4.63,7-10.35,6.47-13.64Z"/>
    <path d="M1315.67,341.51l18.53,27.87-8.6,5.72-18.53-27.87-12.65,8.41-4.14-6.23,33.85-22.51,4.15,6.23Z"/>
    <path d="M1350.38,358.62l-22.67-34.1,8.55-5.68,22.67,34.1Z"/>
    <path d="M1362.21,300.05c10.53-7,24-9.68,32.92,3.74,7.49,11.26,5,23.38-8.51,32.34s-25.86,6.68-33.09-4.19C1344.76,318.76,1351.68,307.05,1362.21,300.05Zm20.23,30c11.21-7.45,5.83-17.73,4.26-20.1-4-6.09-12-9.36-20.22-3.9-8.45,5.62-7.92,14.38-4,20.28,3.66,5.51,11.17,9.58,20,3.73Z"/>
    <path d="M1442,297.74l-37-9.91,15.89,23.91-8.11,5.39L1390.11,283l8.55-5.69,36.74,9.91-15.83-23.81,8.11-5.4,22.67,34.1Z"/>
  </g>
  <g>
    <path d="M1512.47,201.68l13.81,20.77c3.85,5.8,9.72,4.47,15,1,4.3-2.86,8.87-7.92,5.34-13.23l-14.39-21.64,8.5-5.65,14.42,21.68c6.2,9.33,1.15,18.81-9.18,25.68-10.58,7-21.44,8-27.64-1.34L1504,207.34Z"/>
    <path d="M1601.26,191.82l-37-9.91,15.89,23.91-8.11,5.4-22.67-34.1,8.54-5.69,36.75,9.91-15.83-23.81,8.11-5.4,22.67,34.1Z"/>
    <path d="M1595.78,146.29l18.69-12.43c5.51-3.66,11-6,17.54-4.63,5.13,1.12,9.44,4.87,12.3,9.17,4.65,7,4.24,12.78,3.45,16.09-1.34,5.84-4.77,9.58-10.86,13.63l-18.45,12.27Zm37.16,15.76c6-4,8.78-9.11,2.64-18.33-.7-1.07-4-6-8.85-6.51-3.11-.38-5.63,1-8.58,2.91l-9.85,6.55,14.64,22Z"/>
    <path d="M1661.78,151.58l-22.67-34.1,31.77-21.13,4.08,6.14-23.23,15.44,5.11,7.68,22.46-14.93,4,6.09-22.46,14.93,5.4,8.11,24.2-16.09,4,6.09Z"/>
    <path d="M1728.48,107.23l-18.2-7.67-9.76,6.48,9.12,13.72-8.5,5.65-22.67-34.1,23.47-15.61a20.81,20.81,0,0,1,6.07-3.12c5.26-1.62,10.18.54,13.17,5a12.94,12.94,0,0,1,2.07,5.1c.76,4.51-1.48,7.53-4.54,10.47l19.86,7.34Zm-32-7.23,14.06-9.34c1.59-1.06,4.48-3.53,2-7.2s-5.57-2.5-7.93-.93L1691,91.65Z"/>
    <path d="M1790.08,49.56c1.87,4.81,3,16.38-12,26.33-12.17,8.1-24.68,7.29-32.61-4.64-6.71-10.09-5.2-22.59,9-32,10.82-7.19,21-6.39,26.62-2.38l-8.55,7.36a13.6,13.6,0,0,0-13.9,1.3c-9.08,6-7.59,14.87-4.22,19.94,4.37,6.57,12.87,8.58,20.26,3.66,7-4.62,7-10.35,6.47-13.63Z"/>
    <path d="M1797.59,10.58c10.53-7,24-9.69,32.92,3.74,7.48,11.25,5,23.38-8.52,32.34s-25.85,6.67-33.08-4.2C1780.14,29.28,1787.06,17.58,1797.59,10.58Zm20.23,30c11.2-7.45,5.83-17.74,4.25-20.11-4-6.08-12-9.36-20.21-3.9-8.45,5.62-7.92,14.39-4,20.28,3.66,5.52,11.14,9.58,20,3.74Z"/>
    <path d="M1877.33,8.26l-36.95-9.9,15.89,23.9-8.11,5.4-22.67-34.1,8.55-5.68,36.74,9.9L1855-26l8.11-5.39L1885.78,2.7Z"/>
  </g>
  <rect class="cls-1" x="1214.39" y="-1462.2" width="96" height="3326" transform="translate(649.36 1322.47) rotate(-70.38)"/>
  <g>
    <path d="M680.42-30.49c11.91,4.25,22.12,13.43,16.71,28.62-4.54,12.73-15.77,18-31,12.53s-20.82-16.73-16.44-29C655-33.27,668.51-34.73,680.42-30.49ZM668.49,3.68c12.67,4.52,17.69-5.95,18.65-8.62,2.45-6.89.31-15.22-9-18.53-9.56-3.41-16.27,2.26-18.64,8.93C657.31-8.31,658.54.13,668.49,3.68Z"/>
    <path d="M730,32,715.82-3.52l-9.64,27L697,20.25l13.75-38.57,9.67,3.44,14.05,35.37,9.61-26.93,9.17,3.27L739.5,35.4Z"/>
  </g>
  <g>
    <path d="M849.16,31l-8.38,23.49C838.44,61.06,843,65,849,67.1c4.86,1.73,11.65,2.37,13.79-3.64L871.5,39l9.61,3.43L872.37,67C868.61,77.48,858,79.12,846.3,75c-12-4.27-19.22-12.4-15.47-22.94l8.71-24.42Z"/>
    <path d="M910.19,96.25,896,60.72l-9.64,27-9.18-3.27L891,45.92l9.67,3.44,14,35.37,9.6-26.93,9.18,3.27L919.7,99.64Z"/>
    <path d="M943.39,64.61l21.15,7.54c6.22,2.22,11.39,5.17,14.2,11.28,2.18,4.78,1.75,10.48,0,15.34-2.82,7.92-7.69,11-10.82,12.4-5.48,2.42-10.53,1.91-17.42-.55l-20.87-7.44Zm9.61,39.2c6.78,2.42,12.55,1.59,16.27-8.85.43-1.2,2.36-6.79-.08-11-1.56-2.71-4.14-3.94-7.47-5.13l-11.15-4-8.88,24.91Z"/>
    <path d="M978.65,120.65,992.4,82.08l35.95,12.82-2.48,6.94-26.28-9.37-3.09,8.69,25.4,9-2.45,6.89L994,108l-3.27,9.18,27.37,9.76-2.45,6.88Z"/>
    <path d="M1054.09,147.55l-4.74-19.18-11-3.93L1032.79,140l-9.62-3.43L1036.92,98l26.55,9.46a21,21,0,0,1,6.14,3c4.45,3.25,5.66,8.48,3.85,13.57a12.87,12.87,0,0,1-2.85,4.71c-3.15,3.31-6.91,3.32-11.1,2.63l6,20.3Zm-13.34-29.94,15.9,5.67c1.8.64,5.51,1.47,7-2.68s-1.33-5.95-4-6.91l-15.52-5.53Z"/>
    <path d="M1137.16,162.39c-2.73,4.38-11.31,12.22-28.25,6.18-13.76-4.91-20.61-15.41-15.8-28.91,4.07-11.41,15-17.68,31-12,12.23,4.36,17.7,13,17.84,19.9l-11-2.45a13.56,13.56,0,0,0-9.36-10.35c-10.27-3.67-16.45,2.81-18.5,8.55-2.65,7.43.84,15.44,9.19,18.42,7.87,2.81,12.47-.6,14.8-3Z"/>
    <path d="M1172.89,145.08c11.91,4.24,22.12,13.43,16.71,28.61-4.54,12.73-15.77,18-31,12.53s-20.82-16.72-16.44-29C1147.47,142.29,1161,140.83,1172.89,145.08ZM1161,179.25c12.67,4.51,17.69-5.95,18.65-8.63,2.45-6.88.31-15.22-9-18.53-9.56-3.4-16.27,2.27-18.64,8.94C1149.78,167.26,1151,175.7,1161,179.25Z"/>
    <path d="M1222.47,207.58,1208.29,172l-9.64,27.05-9.18-3.28,13.75-38.56,9.67,3.44,14,35.37,9.6-26.93,9.18,3.27L1232,211Z"/>
    <path d="M1250.75,204.24c.56,5.68,6.16,9,10.92,10.66,1.85.67,9.69,3.21,11.42-1.65,1.13-3.17-2.39-5-6.89-7.44-6.77-3.65-10.34-5.54-12.93-8.12a10.54,10.54,0,0,1-2.79-11.34c3.06-8.58,12.77-9.06,22.33-5.65,11.31,4,15.81,9.89,16.92,16.44l-9.94-1c-.67-4.67-5.77-7.29-9.71-8.69-1.8-.65-8.45-2.89-10,1.48-.7,2,.38,3.27,1.88,4.42,2.43,1.79,9,5.29,11.56,6.77,4.71,2.67,12.14,7,9.09,15.62-3.78,10.6-14.45,9.44-24.23,5.95-11.26-4-16-9.94-17.21-18.39Z"/>
    <path d="M1314.67,204.92l-11.24,31.52-9.72-3.46,11.23-31.52-14.31-5.11,2.51-7,38.3,13.66-2.51,7Z"/>
    <path d="M1352.65,254l-4.74-19.18-11-3.93-5.53,15.52-9.62-3.43,13.75-38.57,26.55,9.46a21,21,0,0,1,6.14,3c4.45,3.25,5.66,8.49,3.85,13.57a12.87,12.87,0,0,1-2.85,4.71c-3.15,3.31-6.91,3.32-11.1,2.63l6,20.3Zm-13.34-29.94,15.9,5.67c1.8.64,5.51,1.47,7-2.68s-1.32-6-4-6.91l-15.52-5.53Z"/>
    <path d="M1392.79,224.83l-8.37,23.49c-2.34,6.56,2.24,10.47,8.19,12.59,4.86,1.73,11.66,2.37,13.8-3.64l8.72-24.48,9.62,3.43L1416,260.75c-3.75,10.55-14.37,12.18-26.06,8-12-4.26-19.23-12.39-15.47-22.94l8.71-24.42Z"/>
    <path d="M1468.78,280.61c-2.74,4.39-11.32,12.22-28.26,6.19-13.76-4.91-20.61-15.42-15.8-28.91,4.07-11.42,15-17.69,31-12,12.23,4.36,17.7,13,17.84,19.91l-11-2.45A13.59,13.59,0,0,0,1453.2,253c-10.28-3.66-16.46,2.82-18.51,8.55-2.65,7.43.84,15.45,9.2,18.43,7.86,2.8,12.46-.61,14.79-3Z"/>
    <path d="M1498.17,270.34l-11.23,31.53-9.73-3.47,11.24-31.52-14.31-5.11,2.51-7,38.3,13.65-2.52,7.05Z"/>
    <path d="M1505.24,308.39,1519,269.82l9.67,3.45-13.75,38.57Z"/>
    <path d="M1559.24,282.82c11.91,4.24,22.12,13.43,16.71,28.61-4.54,12.73-15.76,18-31,12.53s-20.82-16.72-16.44-29C1533.82,280,1547.33,278.57,1559.24,282.82ZM1547.31,317c12.69,4.5,17.69-6,18.69-8.64,2.45-6.88.32-15.22-9-18.53-9.56-3.41-16.27,2.27-18.64,8.94C1536.13,305,1537.37,313.44,1547.31,317Z"/>
    <path d="M1608.82,345.32l-14.18-35.54L1585,336.83l-9.18-3.28L1589.57,295l9.67,3.45,14,35.37,9.61-26.93,9.17,3.27-13.75,38.57Z"/>
  </g>
  <g>
    <path d="M1728,344.32l-8.38,23.49c-2.34,6.56,2.24,10.47,8.2,12.59,4.86,1.74,11.65,2.37,13.8-3.64l8.72-24.47,9.62,3.43-8.75,24.53c-3.76,10.54-14.38,12.17-26.07,8-12-4.26-19.22-12.39-15.46-22.93l8.7-24.42Z"/>
    <path d="M1789,409.56,1774.84,374l-9.64,27-9.18-3.27,13.75-38.57,9.67,3.45,14,35.37L1803,371l9.18,3.27-13.75,38.57Z"/>
    <path d="M1822.22,377.92l21.14,7.54c6.23,2.22,11.39,5.17,14.2,11.28,2.18,4.78,1.75,10.47,0,15.34-2.82,7.92-7.69,11.05-10.82,12.39-5.48,2.42-10.53,1.91-17.42-.54l-20.87-7.44Zm9.6,39.2c6.78,2.41,12.56,1.58,16.28-8.85.42-1.21,2.36-6.8-.09-11-1.56-2.71-4.14-3.94-7.47-5.13l-11.14-4-8.88,24.91Z"/>
    <path d="M1857.47,434l13.75-38.57,36,12.82-2.48,6.93-26.27-9.36-3.1,8.68,25.4,9.06-2.45,6.88-25.4-9-3.28,9.17,27.37,9.76-2.45,6.89Z"/>
    <path d="M1932.91,460.86l-4.73-19.18-11-3.93-5.53,15.51-9.62-3.43,13.75-38.57,26.55,9.47a20.74,20.74,0,0,1,6.14,3c4.45,3.25,5.66,8.48,3.85,13.56a12.79,12.79,0,0,1-2.85,4.71c-3.15,3.31-6.91,3.33-11.1,2.63l6,20.31Zm-13.34-29.94,15.9,5.67c1.81.64,5.51,1.47,7-2.69s-1.32-5.95-4-6.9L1923,421.47Z"/>
  </g>
  <rect class="cls-1" x="-254" y="819.16" width="3326" height="96"/>
  <g>
    <path d="M29.75,846v24.9c0,7,5.63,9.11,12,9.11,5.16,0,11.78-1.69,11.78-8.07V846h10.2v26c0,11.2-9.45,16.3-21.86,16.3-12.7,0-22.27-5.22-22.27-16.41V846Z"/>
    <path d="M109.16,886.91,83.87,858.2v28.71H74.12V846H84.39l25.11,28.59V846h9.75v41Z"/>
    <path d="M129.8,846h22.45c6.61,0,12.47,1,17.17,5.86,3.65,3.77,5.16,9.28,5.16,14.44,0,8.41-3.54,13-6,15.31C164.23,885.73,159.3,887,152,887H129.8ZM152,879.66c7.19,0,12.35-2.73,12.35-13.81,0-1.27-.06-7.19-3.77-10.32-2.38-2-5.22-2.32-8.76-2.32H140v26.45Z"/>
    <path d="M181.83,886.91V846H220v7.37H192.1v9.22h27v7.31h-27v9.74h29.06V887Z"/>
    <path d="M261.92,886.91,251,870.44H239.31v16.47H229.1V846h28.19a21,21,0,0,1,6.78.75c5.28,1.57,8.18,6.09,8.18,11.49a12.82,12.82,0,0,1-1.1,5.39c-1.86,4.18-5.4,5.45-9.57,6.21L274.05,887Zm-22.61-23.72h16.87c1.92,0,5.69-.47,5.69-4.88s-3.25-5.16-6.09-5.16H239.31Z"/>
    <path d="M345.15,873c-1.1,5-6.55,15.31-24.53,15.31C306,888.3,296,880.7,296,866.38c0-12.13,8.18-21.7,25.17-21.7,13,0,21.05,6.33,23.49,12.76l-11.19,1.4a13.59,13.59,0,0,0-12.3-6.62c-10.9,0-14.56,8.18-14.56,14.27,0,7.89,6,14.27,14.85,14.27,8.35,0,11.54-4.76,12.93-7.77Z"/>
    <path d="M373,844.68c12.65,0,25.35,5.22,25.35,21.35,0,13.51-8.82,22.21-25,22.21s-25.23-8.76-25.23-21.81C348.11,850.6,360.35,844.68,373,844.68Zm.24,36.2c13.45,0,14.67-11.55,14.67-14.39,0-7.31-4.81-14.44-14.67-14.44-10.15,0-14.56,7.6-14.56,14.67,0,6.62,4,14.16,14.55,14.16Z"/>
    <path d="M440.68,886.91,415.39,858.2v28.71h-9.74V846h10.26L441,874.55V846h9.74v41Z"/>
    <path d="M466.2,874.26c2.43,5.17,8.81,6.38,13.86,6.38,2,0,10.21-.23,10.21-5.39,0-3.36-3.95-3.94-9-4.7-7.6-1.16-11.6-1.74-14.91-3.3a10.56,10.56,0,0,1-6.43-9.75c0-9.1,9-12.82,19.13-12.82,12,0,18.22,4,21.46,9.81l-9.68,2.43c-2.21-4.17-7.89-4.93-12.07-4.93-1.91,0-8.93.12-8.93,4.76,0,2.09,1.45,3,3.25,3.54,2.9.87,10.21,2,13.17,2.49,5.33.93,13.8,2.55,13.8,11.66,0,11.25-10.44,13.74-20.82,13.74-11.95,0-18.39-4-22.39-11.54Z"/>
    <path d="M526.63,853.44v33.47H516.31V853.44H501.12V846h40.65v7.48Z"/>
    <path d="M578.89,886.91,568,870.44H556.27v16.47H546.06V846h28.19a21,21,0,0,1,6.79.75c5.28,1.57,8.18,6.09,8.18,11.49a12.64,12.64,0,0,1-1.11,5.39c-1.85,4.18-5.39,5.45-9.57,6.21L591,886.91Zm-22.62-23.72h16.88c1.91,0,5.68-.47,5.68-4.88s-3.24-5.16-6.09-5.16H556.27Z"/>
    <path d="M606.91,846v24.9c0,7,5.62,9.11,11.94,9.11,5.17,0,11.78-1.69,11.78-8.07V846h10.2v26c0,11.2-9.45,16.3-21.86,16.3-12.7,0-22.27-5.22-22.27-16.41V846Z"/>
    <path d="M697.21,873c-1.1,5-6.55,15.31-24.53,15.31-14.62,0-24.6-7.6-24.6-21.92,0-12.13,8.18-21.7,25.18-21.7,13,0,21,6.33,23.49,12.76l-11.2,1.4a13.56,13.56,0,0,0-12.29-6.62c-10.91,0-14.56,8.18-14.56,14.27,0,7.89,6,14.27,14.85,14.27,8.35,0,11.54-4.76,12.93-7.77Z"/>
    <path d="M721.45,853.44v33.47H711.13V853.44h-15.2V846h40.66v7.48Z"/>
    <path d="M740.88,886.91V846h10.27v41Z"/>
    <path d="M783.17,844.68c12.64,0,25.34,5.22,25.34,21.35,0,13.51-8.82,22.21-25,22.21s-25.23-8.76-25.23-21.81C758.28,850.6,770.52,844.68,783.17,844.68Zm.23,36.2c13.45,0,14.67-11.55,14.67-14.39,0-7.31-4.81-14.44-14.67-14.44-10.15,0-14.56,7.6-14.56,14.67,0,6.62,4,14.16,14.56,14.16Z"/>
    <path d="M850.85,886.91,825.56,858.2v28.71h-9.74V846h10.26l25.12,28.59V846h9.74v41Z"/>
  </g>
  <g>
    <path d="M962.75,846v24.9c0,7,5.63,9.11,12,9.11,5.17,0,11.78-1.69,11.78-8.07V846h10.2v26c0,11.2-9.45,16.3-21.86,16.3-12.7,0-22.27-5.22-22.27-16.41V846Z"/>
    <path d="M1042.16,886.91l-25.29-28.71v28.71h-9.75V846h10.27l25.11,28.59V846h9.75v41Z"/>
    <path d="M1062.8,846h22.45c6.61,0,12.47,1,17.17,5.86,3.65,3.77,5.16,9.28,5.16,14.44,0,8.41-3.54,13-6,15.31-4.35,4.12-9.28,5.34-16.59,5.34H1062.8ZM1085,879.7c7.19,0,12.35-2.73,12.35-13.81,0-1.27-.06-7.19-3.77-10.32-2.38-2-5.22-2.32-8.76-2.32H1073V879.7Z"/>
    <path d="M1114.83,886.91V846H1153v7.37h-27.9v9.22h27v7.31h-27v9.74h29.06V887Z"/>
    <path d="M1194.92,886.91,1184,870.44h-11.7v16.47h-10.2V846h28.19a21,21,0,0,1,6.78.75c5.28,1.57,8.18,6.09,8.18,11.49a12.85,12.85,0,0,1-1.1,5.39c-1.86,4.18-5.4,5.45-9.57,6.21L1207.05,887Zm-22.62-23.72h16.88c1.92,0,5.69-.47,5.69-4.88s-3.25-5.16-6.09-5.16H1172.3Z"/>
    <path d="M1278.15,873c-1.1,5-6.55,15.31-24.53,15.31-14.62,0-24.59-7.6-24.59-21.92,0-12.13,8.18-21.7,25.17-21.7,13,0,21,6.33,23.49,12.76l-11.19,1.4a13.59,13.59,0,0,0-12.3-6.62c-10.9,0-14.56,8.18-14.56,14.27,0,7.89,6,14.27,14.85,14.27,8.35,0,11.54-4.76,12.93-7.77Z"/>
    <path d="M1306,844.68c12.65,0,25.35,5.22,25.35,21.35,0,13.51-8.82,22.21-25,22.21s-25.23-8.76-25.23-21.81C1281.11,850.6,1293.35,844.68,1306,844.68Zm.24,36.2c13.45,0,14.67-11.55,14.67-14.39,0-7.31-4.81-14.44-14.67-14.44-10.15,0-14.56,7.6-14.56,14.67,0,6.62,4,14.16,14.55,14.16Z"/>
    <path d="M1373.68,886.91l-25.29-28.71v28.71h-9.74V846h10.26L1374,874.55V846h9.74v41Z"/>
    <path d="M1399.2,874.26c2.43,5.17,8.81,6.38,13.86,6.38,2,0,10.21-.23,10.21-5.39,0-3.36-4-3.94-9-4.7-7.6-1.16-11.6-1.74-14.91-3.3a10.56,10.56,0,0,1-6.43-9.75c0-9.1,9-12.82,19.13-12.82,12,0,18.22,4,21.46,9.81l-9.68,2.43c-2.21-4.17-7.89-4.93-12.06-4.93-1.92,0-8.94.12-8.94,4.76,0,2.09,1.45,3,3.25,3.54,2.9.87,10.21,2,13.17,2.49,5.33.93,13.8,2.55,13.8,11.66,0,11.25-10.44,13.74-20.82,13.74-12,0-18.39-4-22.39-11.54Z"/>
    <path d="M1459.63,853.44v33.47h-10.32V853.44h-15.19V846h40.65v7.48Z"/>
    <path d="M1511.89,886.91,1501,870.44h-11.72v16.47h-10.21V846h28.19a21,21,0,0,1,6.79.75c5.28,1.57,8.18,6.09,8.18,11.49a12.64,12.64,0,0,1-1.11,5.39c-1.85,4.18-5.39,5.45-9.57,6.21L1524,886.91Zm-22.62-23.72h16.88c1.91,0,5.68-.47,5.68-4.88s-3.24-5.16-6.09-5.16h-16.47Z"/>
    <path d="M1539.91,846v24.9c0,7,5.62,9.11,11.94,9.11,5.17,0,11.78-1.69,11.78-8.07V846h10.2v26c0,11.2-9.45,16.3-21.86,16.3-12.7,0-22.27-5.22-22.27-16.41V846Z"/>
    <path d="M1630.21,873c-1.1,5-6.55,15.31-24.53,15.31-14.62,0-24.6-7.6-24.6-21.92,0-12.13,8.18-21.7,25.18-21.7,13,0,21,6.33,23.49,12.76l-11.2,1.4a13.56,13.56,0,0,0-12.29-6.62c-10.91,0-14.56,8.18-14.56,14.27,0,7.89,6,14.27,14.85,14.27,8.35,0,11.54-4.76,12.93-7.77Z"/>
    <path d="M1654.45,853.44v33.47h-10.32V853.44h-15.2V846h40.66v7.48Z"/>
    <path d="M1673.88,886.91V846h10.27v41Z"/>
    <path d="M1716.17,844.68c12.64,0,25.34,5.22,25.34,21.35,0,13.51-8.82,22.21-25,22.21s-25.23-8.76-25.23-21.81C1691.28,850.6,1703.52,844.68,1716.17,844.68Zm.23,36.2c13.45,0,14.67-11.55,14.67-14.39,0-7.31-4.81-14.44-14.67-14.44-10.15,0-14.56,7.6-14.56,14.67C1701.84,873.34,1705.84,880.88,1716.4,880.88Z"/>
    <path d="M1783.85,886.91l-25.29-28.71v28.71h-9.74V846h10.26l25.12,28.59V846h9.74v41Z"/>
  </g>
  <path d="M1895.75,846v24.9c0,7,5.63,9.11,12,9.11,5.17,0,11.78-1.69,11.78-8.07V846h10.2v26c0,11.2-9.45,16.3-21.86,16.3-12.7,0-22.27-5.22-22.27-16.41V846Z"/>
</svg>
